# xmcd
#
# Track frame offsets:
# 150
# 15550
# 30270
# 44363
# 54861
# 69267
# 88429
# 95052
# 112211
# 129277
# 153087
# 168118
#
# Disc length: 2733 seconds
#
# Revision: 0
# Processed by: cddbd v1.5.2PL0 Copyright (c) Steve Scherf et al.
# Submitted via: cdrdao 1.2.4
#
DISCID=8d0aab0c
DTITLE=The Dead South - Illusion and Doubt
DYEAR=2016
DGENRE=country
TTITLE0=Boots
TTITLE1=Every Man Needs a Chew
TTITLE2=Deadman's Isle
TTITLE3=Smootchin' in the Ditch
TTITLE4=One Armed Man
TTITLE5=The Good Lord
TTITLE6=Delirium
TTITLE7=Miss Mary
TTITLE8=Time for Crawlin'
TTITLE9=Massacre of El Kuroke
TTITLE10=Hard Day
TTITLE11=Gunslinger's Glory
EXTD=
EXTT0=
EXTT1=
EXTT2=
EXTT3=
EXTT4=
EXTT5=
EXTT6=
EXTT7=
EXTT8=
EXTT9=
EXTT10=
EXTT11=
PLAYORDER=
